<svg width="16" height="15" viewBox="0 0 16 15" fill="none" xmlns="http://www.w3.org/2000/svg">
<path d="M15.3438 12.9126H1.90625V0.725098C1.90625 0.63916 1.83594 0.568848 1.75 0.568848H0.65625C0.570312 0.568848 0.5 0.63916 0.5 0.725098V14.1626C0.5 14.2485 0.570312 14.3188 0.65625 14.3188H15.3438C15.4297 14.3188 15.5 14.2485 15.5 14.1626V13.0688C15.5 12.9829 15.4297 12.9126 15.3438 12.9126ZM3.625 11.3501H4.71875C4.80469 11.3501 4.875 11.2798 4.875 11.1938V8.38135C4.875 8.29541 4.80469 8.2251 4.71875 8.2251H3.625C3.53906 8.2251 3.46875 8.29541 3.46875 8.38135V11.1938C3.46875 11.2798 3.53906 11.3501 3.625 11.3501ZM6.59375 11.3501H7.6875C7.77344 11.3501 7.84375 11.2798 7.84375 11.1938V4.94385C7.84375 4.85791 7.77344 4.7876 7.6875 4.7876H6.59375C6.50781 4.7876 6.4375 4.85791 6.4375 4.94385V11.1938C6.4375 11.2798 6.50781 11.3501 6.59375 11.3501ZM9.5625 11.3501H10.6562C10.7422 11.3501 10.8125 11.2798 10.8125 11.1938V6.46729C10.8125 6.38135 10.7422 6.31104 10.6562 6.31104H9.5625C9.47656 6.31104 9.40625 6.38135 9.40625 6.46729V11.1938C9.40625 11.2798 9.47656 11.3501 9.5625 11.3501ZM12.5312 11.3501H13.625C13.7109 11.3501 13.7812 11.2798 13.7812 11.1938V3.38135C13.7812 3.29541 13.7109 3.2251 13.625 3.2251H12.5312C12.4453 3.2251 12.375 3.29541 12.375 3.38135V11.1938C12.375 11.2798 12.4453 11.3501 12.5312 11.3501Z" fill="black" fill-opacity="0.5"/>
</svg>
