<svg width="18" height="22" viewBox="0 0 18 22" fill="none" xmlns="http://www.w3.org/2000/svg">
<path d="M1.5 6.63846V20.3885H12.75V6.63846H1.5ZM0.875 5.11068H13.375C13.5408 5.11068 13.6997 5.19116 13.8169 5.33442C13.9342 5.47767 14 5.67197 14 5.87457V21.1524C14 21.355 13.9342 21.5492 13.8169 21.6925C13.6997 21.8358 13.5408 21.9162 13.375 21.9162H0.875C0.70924 21.9162 0.550269 21.8358 0.433058 21.6925C0.315848 21.5492 0.25 21.355 0.25 21.1524V5.87457C0.25 5.67197 0.315848 5.47767 0.433058 5.33442C0.550269 5.19116 0.70924 5.11068 0.875 5.11068ZM17.75 1.29123V18.0968C17.75 18.2994 17.6842 18.4937 17.5669 18.6369C17.4497 18.7802 17.2908 18.8607 17.125 18.8607H15.25V17.3329H16.5V2.05512H6.5V3.5829H5.25V1.29123C5.25 1.08864 5.31585 0.894339 5.43306 0.751082C5.55027 0.607825 5.70924 0.527344 5.875 0.527344H17.125C17.2908 0.527344 17.4497 0.607825 17.5669 0.751082C17.6842 0.894339 17.75 1.08864 17.75 1.29123ZM4 15.0412H10.25V16.569H4V15.0412ZM4 10.4579H10.25V11.9857H4V10.4579Z" fill="black" fill-opacity="0.5"/>
</svg>
