<svg width="18" height="14" viewBox="0 0 18 14" fill="none" xmlns="http://www.w3.org/2000/svg">
<path d="M0.803516 13.2912C0.958516 13.5245 1.21935 13.6654 1.49935 13.6654H13.9993C14.3327 13.6654 14.6343 13.467 14.7652 13.1604L17.2652 7.32703C17.32 7.20031 17.3423 7.06195 17.3303 6.92442C17.3182 6.78689 17.2721 6.65453 17.1961 6.53927C17.1202 6.42401 17.0167 6.32948 16.895 6.2642C16.7734 6.19893 16.6374 6.16496 16.4993 6.16536H15.666V3.66536C15.666 2.7462 14.9185 1.9987 13.9993 1.9987H8.45352L6.32352 0.332031H2.33268C1.41352 0.332031 0.666016 1.07953 0.666016 1.9987V12.832H0.671849C0.669992 12.9947 0.715761 13.1543 0.803516 13.2912V13.2912ZM13.9993 3.66536V6.16536H3.99935C3.66602 6.16536 3.36435 6.3637 3.23352 6.67036L2.33268 8.77286V3.66536H13.9993Z" fill="black" fill-opacity="0.5"/>
</svg>
