<svg width="18" height="18" viewBox="0 0 18 18" fill="none" xmlns="http://www.w3.org/2000/svg">
<path d="M17.4863 8.86229L9.44141 0.823226C9.38348 0.765187 9.31468 0.719142 9.23894 0.687725C9.16319 0.656308 9.082 0.640137 9 0.640137C8.918 0.640137 8.83681 0.656308 8.76106 0.687725C8.68532 0.719142 8.61652 0.765187 8.55859 0.823226L0.513672 8.86229C0.279297 9.09667 0.146484 9.41502 0.146484 9.74706C0.146484 10.4365 0.707031 10.9971 1.39648 10.9971H2.24414V16.7334C2.24414 17.0791 2.52344 17.3584 2.86914 17.3584H7.75V12.9834H9.9375V17.3584H15.1309C15.4766 17.3584 15.7559 17.0791 15.7559 16.7334V10.9971H16.6035C16.9355 10.9971 17.2539 10.8662 17.4883 10.6299C17.9746 10.1416 17.9746 9.35057 17.4863 8.86229Z" fill="black" fill-opacity="0.5"/>
</svg>
