<svg width="20" height="21" viewBox="0 0 20 21" fill="none" xmlns="http://www.w3.org/2000/svg">
<path d="M6.6674 9.4133H6.18407C5.52449 9.38946 4.86705 9.50143 4.25255 9.74226C3.63804 9.9831 3.07959 10.3476 2.61185 10.8133L2.47852 10.9689V15.5689H4.74518V12.9577L5.05074 12.6133L5.18963 12.4522C5.91292 11.7091 6.81339 11.1623 7.80629 10.8633C7.30918 10.485 6.91712 9.98588 6.6674 9.4133Z" fill="black" fill-opacity="0.5"/>
<path d="M17.4119 10.7938C16.9442 10.3281 16.3857 9.96356 15.7712 9.72273C15.1567 9.4819 14.4993 9.36993 13.8397 9.39377C13.6374 9.39434 13.4353 9.40547 13.2342 9.4271C12.9798 9.96427 12.5984 10.4314 12.123 10.7882C13.183 11.0815 14.1433 11.6576 14.9008 12.4549L15.0397 12.6104L15.3397 12.9549V15.5715H17.5286V10.9493L17.4119 10.7938Z" fill="black" fill-opacity="0.5"/>
<path d="M6.16595 8.32691H6.33817C6.25815 7.63982 6.37871 6.94426 6.6853 6.32418C6.99188 5.70411 7.47139 5.18602 8.06595 4.83247C7.85043 4.50322 7.55309 4.23558 7.20306 4.05577C6.85303 3.87596 6.4623 3.79013 6.06913 3.8067C5.67596 3.82327 5.29384 3.94166 4.96018 4.15029C4.62651 4.35891 4.35275 4.65061 4.1657 4.99683C3.97864 5.34304 3.88471 5.7319 3.89309 6.12533C3.90148 6.51875 4.0119 6.90326 4.21353 7.24119C4.41517 7.57912 4.70111 7.85889 5.04336 8.05311C5.38561 8.24733 5.77243 8.34933 6.16595 8.34913V8.32691Z" fill="black" fill-opacity="0.5"/>
<path d="M13.5722 7.91136C13.5789 8.03905 13.5789 8.167 13.5722 8.29469C13.6788 8.31159 13.7865 8.32088 13.8944 8.32247H14C14.3917 8.30158 14.7714 8.1796 15.1021 7.9684C15.4327 7.75721 15.7031 7.464 15.8868 7.11731C16.0705 6.77063 16.1613 6.38229 16.1503 5.9901C16.1394 5.59791 16.0271 5.21524 15.8243 4.87934C15.6216 4.54343 15.3353 4.26575 14.9934 4.07332C14.6515 3.88089 14.2656 3.78027 13.8733 3.78126C13.4809 3.78224 13.0955 3.8848 12.7546 4.07895C12.4136 4.2731 12.1288 4.55222 11.9277 4.88914C12.4306 5.21744 12.844 5.66542 13.131 6.1929C13.418 6.72038 13.5696 7.31086 13.5722 7.91136Z" fill="black" fill-opacity="0.5"/>
<path d="M9.92865 10.4003C11.3002 10.4003 12.412 9.28843 12.412 7.91693C12.412 6.54542 11.3002 5.43359 9.92865 5.43359C8.55714 5.43359 7.44531 6.54542 7.44531 7.91693C7.44531 9.28843 8.55714 10.4003 9.92865 10.4003Z" fill="black" fill-opacity="0.5"/>
<path d="M10.0615 11.7237C9.33601 11.6944 8.61206 11.8122 7.93323 12.07C7.25441 12.3278 6.63475 12.7202 6.11155 13.2237L5.97266 13.3793V16.896C5.97482 17.0105 5.99954 17.1235 6.04539 17.2285C6.09123 17.3335 6.15732 17.4284 6.23986 17.5079C6.32241 17.5873 6.4198 17.6497 6.52647 17.6915C6.63314 17.7333 6.747 17.7537 6.86155 17.7515H13.2449C13.3594 17.7537 13.4733 17.7333 13.58 17.6915C13.6866 17.6497 13.784 17.5873 13.8666 17.5079C13.9491 17.4284 14.0152 17.3335 14.061 17.2285C14.1069 17.1235 14.1316 17.0105 14.1338 16.896V13.3904L14.0004 13.2237C13.4806 12.7187 12.8631 12.3251 12.1858 12.0672C11.5085 11.8093 10.7856 11.6924 10.0615 11.7237Z" fill="black" fill-opacity="0.5"/>
</svg>
