<svg width="16" height="20" viewBox="0 0 16 20" fill="none" xmlns="http://www.w3.org/2000/svg">
<path d="M1 3.11051V16.4438C1 16.8859 1.17559 17.3098 1.48816 17.6224C1.80072 17.9349 2.22464 18.1105 2.66667 18.1105H12.6667C13.1087 18.1105 13.5326 17.9349 13.8452 17.6224C14.1577 17.3098 14.3333 16.8859 14.3333 16.4438V6.72885C14.3333 6.50681 14.2889 6.28702 14.2028 6.08239C14.1166 5.87775 13.9904 5.69238 13.8317 5.53718L10.1317 1.91885C9.8203 1.6144 9.40214 1.4439 8.96667 1.44385H2.66667C2.22464 1.44385 1.80072 1.61944 1.48816 1.932C1.17559 2.24456 1 2.66849 1 3.11051V3.11051Z" stroke="#6B7280" stroke-width="2" stroke-linecap="round" stroke-linejoin="round"/>
<path d="M5.1665 10.6106H10.1665" stroke="#6B7280" stroke-width="2" stroke-linecap="round" stroke-linejoin="round"/>
<path d="M5.1665 13.9438H7.6665" stroke="#6B7280" stroke-width="2" stroke-linecap="round" stroke-linejoin="round"/>
<path d="M9.3335 1.44385V4.77718C9.3335 5.21921 9.50909 5.64313 9.82165 5.95569C10.1342 6.26825 10.5581 6.44385 11.0002 6.44385H14.3335" stroke="#6B7280" stroke-width="2" stroke-linejoin="round"/>
</svg>
