<svg width="20" height="20" viewBox="0 0 20 20" fill="none" xmlns="http://www.w3.org/2000/svg">
<rect width="20" height="20" fill="#374151"/>
<path d="M13.586 3.58714C13.7705 3.39612 13.9912 3.24375 14.2352 3.13894C14.4792 3.03412 14.7416 2.97895 15.0072 2.97664C15.2728 2.97433 15.5361 3.02493 15.7819 3.1255C16.0277 3.22606 16.251 3.37456 16.4388 3.56235C16.6266 3.75013 16.7751 3.97344 16.8756 4.21923C16.9762 4.46502 17.0268 4.72838 17.0245 4.99394C17.0222 5.2595 16.967 5.52194 16.8622 5.76595C16.7574 6.00996 16.605 6.23065 16.414 6.41514L15.621 7.20814L12.793 4.38014L13.586 3.58714V3.58714ZM11.379 5.79414L3 14.1731V17.0011H5.828L14.208 8.62214L11.378 5.79414H11.379Z" fill="white"/>
</svg>
