<svg width="18" height="19" viewBox="0 0 18 19" fill="none" xmlns="http://www.w3.org/2000/svg">
<path d="M10.7325 0.693848C10.8648 0.693852 10.9937 0.735852 11.1007 0.813801C11.2076 0.891749 11.287 1.00162 11.3275 1.1276L12.015 3.26385C12.3038 3.4051 12.58 3.56385 12.8438 3.7426L15.0388 3.2701C15.1682 3.24247 15.303 3.25663 15.4239 3.31054C15.5447 3.36445 15.6454 3.45534 15.7113 3.5701L17.4438 6.56885C17.5099 6.68354 17.5379 6.81629 17.5238 6.94793C17.5096 7.07958 17.454 7.20334 17.365 7.30135L15.8588 8.96385C15.8807 9.28264 15.8807 9.60256 15.8588 9.92135L17.365 11.5863C17.454 11.6844 17.5096 11.8081 17.5238 11.9398C17.5379 12.0714 17.5099 12.2042 17.4438 12.3188L15.7113 15.3188C15.6452 15.4334 15.5445 15.524 15.4236 15.5777C15.3028 15.6314 15.168 15.6453 15.0388 15.6176L12.8438 15.1451C12.5813 15.3226 12.3038 15.4826 12.0163 15.6238L11.3275 17.7601C11.287 17.8861 11.2076 17.9959 11.1007 18.0739C10.9937 18.1518 10.8648 18.1938 10.7325 18.1938H7.26751C7.13519 18.1938 7.00628 18.1518 6.89936 18.0739C6.79243 17.9959 6.713 17.8861 6.67251 17.7601L5.98626 15.6251C5.69829 15.4843 5.42052 15.3235 5.15501 15.1438L2.96126 15.6176C2.83184 15.6452 2.69699 15.6311 2.57614 15.5772C2.45528 15.5232 2.35466 15.4324 2.28876 15.3176L0.556263 12.3188C0.490106 12.2042 0.462084 12.0714 0.476238 11.9398C0.490391 11.8081 0.545989 11.6844 0.635013 11.5863L2.14126 9.92135C2.11944 9.60339 2.11944 9.28431 2.14126 8.96635L0.635013 7.30135C0.545989 7.20334 0.490391 7.07958 0.476238 6.94793C0.462084 6.81629 0.490106 6.68354 0.556263 6.56885L2.28876 3.56885C2.35484 3.45431 2.45554 3.36369 2.57638 3.31001C2.69723 3.25633 2.83198 3.24235 2.96126 3.2701L5.15501 3.74385C5.42001 3.5651 5.69751 3.40385 5.98626 3.2626L6.67376 1.1276C6.71412 1.00203 6.79317 0.892446 6.8996 0.814535C7.00602 0.736624 7.13437 0.69438 7.26626 0.693848H10.7313H10.7325ZM10.275 1.94385H7.72501L7.01501 4.1526L6.53626 4.38635C6.30091 4.50152 6.07371 4.63266 5.85626 4.77885L5.41376 5.07885L3.14376 4.58885L1.86876 6.79885L3.42501 8.52135L3.38751 9.05135C3.36955 9.31271 3.36955 9.57499 3.38751 9.83635L3.42501 10.3663L1.86626 12.0888L3.14251 14.2988L5.41251 13.8101L5.85501 14.1088C6.07246 14.255 6.29966 14.3862 6.53501 14.5013L7.01376 14.7351L7.72501 16.9438H10.2775L10.99 14.7338L11.4675 14.5013C11.7026 14.3864 11.9294 14.2553 12.1463 14.1088L12.5875 13.8101L14.8588 14.2988L16.1338 12.0888L14.5763 10.3663L14.6138 9.83635C14.6318 9.57457 14.6318 9.31187 14.6138 9.0501L14.5763 8.5201L16.135 6.79885L14.8588 4.58885L12.5875 5.07635L12.1463 4.77885C11.9294 4.63237 11.7026 4.50121 11.4675 4.38635L10.99 4.15385L10.2763 1.94385H10.275ZM9.00001 5.69385C9.99457 5.69385 10.9484 6.08894 11.6517 6.7922C12.3549 7.49546 12.75 8.44929 12.75 9.44385C12.75 10.4384 12.3549 11.3922 11.6517 12.0955C10.9484 12.7988 9.99457 13.1938 9.00001 13.1938C8.00545 13.1938 7.05162 12.7988 6.34836 12.0955C5.6451 11.3922 5.25001 10.4384 5.25001 9.44385C5.25001 8.44929 5.6451 7.49546 6.34836 6.7922C7.05162 6.08894 8.00545 5.69385 9.00001 5.69385ZM9.00001 6.94385C8.33697 6.94385 7.70109 7.20724 7.23224 7.67608C6.7634 8.14492 6.50001 8.78081 6.50001 9.44385C6.50001 10.1069 6.7634 10.7428 7.23224 11.2116C7.70109 11.6805 8.33697 11.9438 9.00001 11.9438C9.66305 11.9438 10.2989 11.6805 10.7678 11.2116C11.2366 10.7428 11.5 10.1069 11.5 9.44385C11.5 8.78081 11.2366 8.14492 10.7678 7.67608C10.2989 7.20724 9.66305 6.94385 9.00001 6.94385Z" fill="#6B7280"/>
</svg>
